<svg width="16" height="16" viewBox="0 0 16 16" fill="none" xmlns="http://www.w3.org/2000/svg">
<path d="M13.3333 10.6667V4.66668C13.3333 4.31305 13.1928 3.97392 12.9427 3.72387C12.6927 3.47382 12.3536 3.33334 11.9999 3.33334H3.99993C3.64631 3.33334 3.30717 3.47382 3.05712 3.72387C2.80708 3.97392 2.6666 4.31305 2.6666 4.66668V10.6667M13.3333 10.6667H2.6666M13.3333 10.6667L14.1866 12.3667C14.238 12.4687 14.2623 12.5822 14.2573 12.6963C14.2522 12.8103 14.2179 12.9212 14.1577 13.0183C14.0975 13.1153 14.0133 13.1952 13.9133 13.2504C13.8133 13.3056 13.7008 13.3341 13.5866 13.3333H2.41327C2.29906 13.3341 2.18656 13.3056 2.08656 13.2504C1.98656 13.1952 1.90241 13.1153 1.84218 13.0183C1.78195 12.9212 1.74766 12.8103 1.7426 12.6963C1.73754 12.5822 1.76187 12.4687 1.81327 12.3667L2.6666 10.6667" stroke="black" stroke-width="1.33333" stroke-linecap="round" stroke-linejoin="round"/>
</svg>
