<svg width="16" height="16" viewBox="0 0 16 16" fill="none" xmlns="http://www.w3.org/2000/svg">
<path d="M3.99992 2.41833C3.69101 2.63308 3.4387 2.91944 3.26456 3.25293C3.09042 3.58642 2.99961 3.95712 2.99992 4.33333C2.99983 4.73592 3.10391 5.13168 3.30204 5.48214C3.50017 5.8326 3.7856 6.12583 4.13059 6.33333M11.9999 2.41833C12.3088 2.63308 12.5611 2.91944 12.7353 3.25293C12.9094 3.58642 13.0002 3.95712 12.9999 4.33333C13.0003 4.70961 12.9095 5.08037 12.7354 5.41392C12.5612 5.74747 12.3089 6.03388 11.9999 6.24867M14.6666 14V13.6C14.6666 12.1067 14.6666 11.36 14.3759 10.7893C14.1203 10.2876 13.7123 9.87966 13.2106 9.624M1.33325 14V13.6C1.33325 12.1067 1.33325 11.36 1.62392 10.7893C1.87958 10.2876 2.28751 9.87966 2.78925 9.624M7.99992 6.66667C8.30634 6.66667 8.60975 6.60631 8.89285 6.48905C9.17594 6.37179 9.43316 6.19992 9.64983 5.98325C9.8665 5.76658 10.0384 5.50935 10.1556 5.22626C10.2729 4.94317 10.3333 4.63975 10.3333 4.33333C10.3333 4.02692 10.2729 3.7235 10.1556 3.44041C10.0384 3.15731 9.8665 2.90009 9.64983 2.68342C9.43316 2.46675 9.17594 2.29488 8.89285 2.17761C8.60975 2.06035 8.30634 2 7.99992 2C7.38108 2 6.78759 2.24583 6.35 2.68342C5.91242 3.121 5.66659 3.71449 5.66659 4.33333C5.66659 4.95217 5.91242 5.54566 6.35 5.98325C6.78759 6.42083 7.38108 6.66667 7.99992 6.66667ZM3.99992 13.3333V14H11.9999V13.3333C11.9999 12.091 11.9999 11.4697 11.7969 10.9793C11.5262 10.326 11.007 9.80691 10.3536 9.53633C9.86392 9.33333 9.24259 9.33333 7.99992 9.33333C6.75725 9.33333 6.13625 9.33333 5.64625 9.53633C5.32268 9.67035 5.02867 9.86679 4.78102 10.1144C4.53337 10.3621 4.33693 10.6561 4.20292 10.9797C3.99992 11.4697 3.99992 12.091 3.99992 13.3333Z" stroke="#2F2E2C" stroke-width="1.33333" stroke-linecap="round" stroke-linejoin="round"/>
</svg>
