<svg width="16" height="17" viewBox="0 0 16 17" fill="none" xmlns="http://www.w3.org/2000/svg">
<path d="M7.99991 9.66667V6.66667M3.17891 14.1667H12.8209C13.5789 14.1667 14.0609 13.3567 13.7004 12.6902L8.87941 3.79017C8.50091 3.09167 7.49891 3.09167 7.12041 3.79017L2.29991 12.6902C1.93841 13.3567 2.42091 14.1667 3.17891 14.1667Z" stroke="#2F2E2C" stroke-width="1.3" stroke-linecap="round"/>
<path d="M8.5 11.4167C8.5 11.5493 8.44732 11.6764 8.35355 11.7702C8.25979 11.864 8.13261 11.9167 8 11.9167C7.86739 11.9167 7.74021 11.864 7.64645 11.7702C7.55268 11.6764 7.5 11.5493 7.5 11.4167C7.5 11.284 7.55268 11.1569 7.64645 11.0631C7.74021 10.9693 7.86739 10.9167 8 10.9167C8.13261 10.9167 8.25979 10.9693 8.35355 11.0631C8.44732 11.1569 8.5 11.284 8.5 11.4167Z" fill="#2F2E2C" stroke="#2F2E2C" stroke-width="0.5"/>
</svg>
