<svg width="16" height="16" viewBox="0 0 16 16" fill="none" xmlns="http://www.w3.org/2000/svg">
<path d="M8 12.3333C11.3137 12.3333 14 9.55933 14 7.66667C14 5.774 11.3137 3 8 3C4.68633 3 2 5.776 2 7.66667C2 9.55733 4.68633 12.3333 8 12.3333Z" stroke="#2F2E2C" stroke-width="1.33333" stroke-linejoin="round"/>
<path d="M8 9.66669C8.53043 9.66669 9.03914 9.45597 9.41421 9.0809C9.78929 8.70583 10 8.19712 10 7.66669C10 7.13625 9.78929 6.62755 9.41421 6.25247C9.03914 5.8774 8.53043 5.66669 8 5.66669C7.46957 5.66669 6.96086 5.8774 6.58579 6.25247C6.21071 6.62755 6 7.13625 6 7.66669C6 8.19712 6.21071 8.70583 6.58579 9.0809C6.96086 9.45597 7.46957 9.66669 8 9.66669Z" stroke="#2F2E2C" stroke-width="1.33333" stroke-linejoin="round"/>
</svg>
