<svg width="62" height="62" viewBox="0 0 62 62" fill="none" xmlns="http://www.w3.org/2000/svg">
<path d="M30.8541 61.7082C47.8944 61.7082 61.7082 47.8943 61.7082 30.8541C61.7082 13.8138 47.8944 -6.10352e-05 30.8541 -6.10352e-05C13.8139 -6.10352e-05 0 13.8138 0 30.8541C0 47.8943 13.8139 61.7082 30.8541 61.7082Z" fill="#2F2E2C"/>
<path d="M44.1572 33.3822C44.9992 34.8408 44.4994 36.7059 43.0409 37.5481L29.3967 45.4256C28.9164 45.7029 28.3921 45.8345 27.8748 45.8345C26.8208 45.8345 25.7956 45.2877 25.2308 44.3093C24.8861 43.7125 24.7663 43.0474 24.845 42.4122C24.876 42.0736 24.7797 41.5452 24.4147 41.302C23.8942 40.955 23.2743 41.0973 22.9324 41.3188C22.5905 41.5403 21.9203 41.7705 21.3343 41.7705C20.4921 41.7705 19.7297 41.4293 19.1779 40.8773C18.626 40.3256 18.2847 39.563 18.2847 38.7209V22.9659C18.2847 21.2817 19.6499 19.9163 21.3343 19.9163C21.9192 19.9163 22.4654 20.0809 22.9295 20.3664C23.2571 20.59 23.9293 20.7397 24.4147 20.3966C24.7899 20.1315 24.8951 19.6758 24.8448 19.295C24.7663 18.6602 24.8863 17.9956 25.2308 17.3988C25.7956 16.4205 26.8206 15.8735 27.8746 15.8735C28.3921 15.8735 28.9164 16.0053 29.3967 16.2826L43.0409 24.1601C44.4994 25.0021 44.9992 26.8673 44.1572 28.326C43.5923 29.3043 42.567 29.8511 41.5131 29.8511C40.9958 29.8511 40.4714 29.7195 39.9913 29.4422C39.9913 29.4422 26.4599 21.6329 26.3536 21.5685C26.0378 21.3899 25.4249 21.1238 24.9044 21.4708C24.4528 21.7719 24.3808 22.1708 24.3839 22.9659C24.3808 23.4659 24.3839 38.7209 24.3839 38.7209C24.3427 39.35 24.4469 39.9229 24.9044 40.2278C25.4249 40.5749 26.0759 40.3023 26.3471 40.1435C26.5326 40.0349 39.9913 32.266 39.9913 32.266C40.4714 31.9887 40.9958 31.857 41.5131 31.857C42.567 31.857 43.5923 32.4039 44.1572 33.3822Z" fill="white"/>
</svg>
