<svg width="16" height="16" viewBox="0 0 16 16" fill="none" xmlns="http://www.w3.org/2000/svg">
<path d="M4.3335 4.14399V2.60399C4.33358 2.35536 4.43241 2.11695 4.60825 1.94117C4.78409 1.7654 5.02254 1.66666 5.27116 1.66666H13.3958C13.6445 1.66666 13.883 1.76545 14.0589 1.94129C14.2347 2.11714 14.3335 2.35564 14.3335 2.60432V10.7293C14.3334 10.9779 14.2346 11.2163 14.0589 11.392C13.8831 11.5678 13.6447 11.6666 13.3962 11.6667H11.8388" stroke="#2F2E2C" stroke-width="1.33333" stroke-linecap="round" stroke-linejoin="round"/>
<path d="M10.7294 4.33331H2.60375C2.35518 4.33349 2.11685 4.43236 1.94115 4.60818C1.76545 4.78401 1.66675 5.02241 1.66675 5.27098V13.3956C1.66675 13.6443 1.76554 13.8828 1.94138 14.0587C2.11723 14.2345 2.35573 14.3333 2.60441 14.3333H10.7294C10.978 14.3332 11.2163 14.2344 11.3921 14.0587C11.5679 13.8829 11.6667 13.6445 11.6667 13.396V5.27031C11.6666 5.0218 11.5678 4.78352 11.392 4.60783C11.2162 4.43214 10.9779 4.3334 10.7294 4.33331Z" stroke="#2F2E2C" stroke-width="1.33333" stroke-linejoin="round"/>
</svg>
