<svg width="16" height="16" viewBox="0 0 16 16" fill="none" xmlns="http://www.w3.org/2000/svg">
<path d="M3.33325 13.3333V2.66667C3.33325 2.48986 3.40349 2.32029 3.52851 2.19526C3.65354 2.07024 3.82311 2 3.99992 2H8.11459C8.46818 2.00008 8.80726 2.1406 9.05725 2.39067L12.2759 5.60933C12.526 5.85932 12.6665 6.19841 12.6666 6.552V13.3333C12.6666 13.5101 12.5963 13.6797 12.4713 13.8047C12.3463 13.9298 12.1767 14 11.9999 14H3.99992C3.82311 14 3.65354 13.9298 3.52851 13.8047C3.40349 13.6797 3.33325 13.5101 3.33325 13.3333Z" stroke="black" stroke-width="1.33333" stroke-linejoin="round"/>
<path d="M8 2V6C8 6.17681 8.07024 6.34638 8.19526 6.4714C8.32029 6.59643 8.48986 6.66667 8.66667 6.66667H12.6667" stroke="black" stroke-width="1.33333" stroke-linejoin="round"/>
</svg>
