<svg width="16" height="17" viewBox="0 0 16 17" fill="none" xmlns="http://www.w3.org/2000/svg">
<path d="M7.99992 15.3333C8.87556 15.3344 9.74278 15.1625 10.5518 14.8274C11.3607 14.4923 12.0955 14.0006 12.7139 13.3807C13.3339 12.7623 13.8255 12.0275 14.1606 11.2185C14.4957 10.4095 14.6677 9.54229 14.6666 8.66666C14.6677 7.79102 14.4957 6.9238 14.1606 6.11482C13.8255 5.30584 13.3339 4.57105 12.7139 3.95266C12.0955 3.33271 11.3607 2.84106 10.5518 2.50596C9.74278 2.17086 8.87556 1.99891 7.99992 1.99999C7.12429 1.99891 6.25707 2.17086 5.44809 2.50596C4.63911 2.84106 3.90431 3.33271 3.28592 3.95266C2.66598 4.57105 2.17433 5.30584 1.83923 6.11482C1.50413 6.9238 1.33218 7.79102 1.33326 8.66666C1.33218 9.54229 1.50413 10.4095 1.83923 11.2185C2.17433 12.0275 2.66598 12.7623 3.28592 13.3807C3.90431 14.0006 4.63911 14.4923 5.44809 14.8274C6.25707 15.1625 7.12429 15.3344 7.99992 15.3333Z" stroke="#2F2E2C" stroke-width="1.33333" stroke-linejoin="round"/>
<path fill-rule="evenodd" clip-rule="evenodd" d="M7.99984 4.33333C8.22085 4.33333 8.43281 4.42113 8.58909 4.57741C8.74537 4.73369 8.83317 4.94565 8.83317 5.16666C8.83317 5.38768 8.74537 5.59964 8.58909 5.75592C8.43281 5.9122 8.22085 5.99999 7.99984 5.99999C7.77882 5.99999 7.56686 5.9122 7.41058 5.75592C7.2543 5.59964 7.1665 5.38768 7.1665 5.16666C7.1665 4.94565 7.2543 4.73369 7.41058 4.57741C7.56686 4.42113 7.77882 4.33333 7.99984 4.33333Z" fill="#2F2E2C"/>
<path d="M8.16667 12V7.33333H7.5M7 12H9.33333" stroke="#2F2E2C" stroke-width="1.33333" stroke-linecap="round" stroke-linejoin="round"/>
</svg>
