<svg width="26" height="27" viewBox="0 0 26 27" fill="none" xmlns="http://www.w3.org/2000/svg">
<path d="M13.0001 24.5C14.423 24.5017 15.8322 24.2223 17.1468 23.6778C18.4614 23.1332 19.6555 22.3343 20.6603 21.3269C21.6678 20.322 22.4667 19.128 23.0112 17.8134C23.5558 16.4988 23.8352 15.0896 23.8334 13.6667C23.8352 12.2437 23.5558 10.8345 23.0112 9.51992C22.4667 8.20533 21.6678 7.01129 20.6603 6.0064C19.6555 4.99899 18.4614 4.20006 17.1468 3.65553C15.8322 3.11099 14.423 2.83157 13.0001 2.83332C11.5772 2.83157 10.1679 3.11099 8.85336 3.65553C7.53876 4.20006 6.34472 4.99899 5.33984 6.0064C4.33243 7.01129 3.5335 8.20533 2.98896 9.51992C2.44442 10.8345 2.165 12.2437 2.16676 13.6667C2.165 15.0896 2.44442 16.4988 2.98896 17.8134C3.5335 19.128 4.33243 20.322 5.33984 21.3269C6.34472 22.3343 7.53876 23.1332 8.85336 23.6778C10.1679 24.2223 11.5772 24.5017 13.0001 24.5Z" stroke="#2F2E2C" stroke-width="1.33333" stroke-linejoin="round"/>
<path fill-rule="evenodd" clip-rule="evenodd" d="M13.0002 6.62498C13.3593 6.62498 13.7037 6.76766 13.9577 7.02161C14.2117 7.27557 14.3543 7.62 14.3543 7.97915C14.3543 8.3383 14.2117 8.68274 13.9577 8.93669C13.7037 9.19065 13.3593 9.33332 13.0002 9.33332C12.641 9.33332 12.2966 9.19065 12.0426 8.93669C11.7887 8.68274 11.646 8.3383 11.646 7.97915C11.646 7.62 11.7887 7.27557 12.0426 7.02161C12.2966 6.76766 12.641 6.62498 13.0002 6.62498Z" fill="#2F2E2C"/>
<path d="M13.2708 19.0833V11.5H12.1875M11.375 19.0833H15.1667" stroke="#2F2E2C" stroke-width="1.33333" stroke-linecap="round" stroke-linejoin="round"/>
</svg>
