<svg width="26" height="27" viewBox="0 0 26 27" fill="none" xmlns="http://www.w3.org/2000/svg">
<path d="M13 15.2917V10.4167M5.16588 22.6042H20.8341C22.0659 22.6042 22.8491 21.2879 22.2633 20.2048L14.4292 5.74235C13.8141 4.60729 12.1859 4.60729 11.5708 5.74235L3.73751 20.2048C3.15007 21.2879 3.93413 22.6042 5.16588 22.6042Z" stroke="#2F2E2C" stroke-width="1.3" stroke-linecap="round"/>
<path d="M13.8125 18.1354C13.8125 18.3509 13.7269 18.5576 13.5745 18.7099C13.4222 18.8623 13.2155 18.9479 13 18.9479C12.7845 18.9479 12.5778 18.8623 12.4255 18.7099C12.2731 18.5576 12.1875 18.3509 12.1875 18.1354C12.1875 17.9199 12.2731 17.7133 12.4255 17.5609C12.5778 17.4085 12.7845 17.3229 13 17.3229C13.2155 17.3229 13.4222 17.4085 13.5745 17.5609C13.7269 17.7133 13.8125 17.9199 13.8125 18.1354Z" fill="#2F2E2C" stroke="#2F2E2C" stroke-width="0.5"/>
</svg>
