<svg width="131" height="131" viewBox="0 0 131 131" fill="none" xmlns="http://www.w3.org/2000/svg">
<path d="M130.387 65.5C130.387 101.336 101.336 130.387 65.5001 130.387C29.6641 130.387 0.613281 101.336 0.613281 65.5C0.613281 29.664 29.6641 0.613205 65.5001 0.613205C101.336 0.613205 130.387 29.664 130.387 65.5ZM20.0793 65.5C20.0793 90.5852 40.4149 110.921 65.5001 110.921C90.5853 110.921 110.921 90.5852 110.921 65.5C110.921 40.4148 90.5853 20.0792 65.5001 20.0792C40.4149 20.0792 20.0793 40.4148 20.0793 65.5Z" fill="#FFE552"/>
<path d="M65.5001 130.387C56.979 130.387 48.5414 128.708 40.669 125.448C32.7965 122.187 25.6435 117.407 19.6182 111.382C13.5929 105.357 8.81336 98.2035 5.55249 90.3311C2.29163 82.4587 0.613281 74.021 0.613281 65.5H20.0793C20.0793 71.4647 21.2542 77.3711 23.5368 82.8818C25.8194 88.3925 29.165 93.3996 33.3827 97.6173C37.6005 101.835 42.6076 105.181 48.1183 107.463C53.629 109.746 59.5353 110.921 65.5001 110.921V130.387Z" fill="#F69D04"/>
</svg>
