<svg width="16" height="16" viewBox="0 0 16 16" fill="none" xmlns="http://www.w3.org/2000/svg">
<g clip-path="url(#clip0_3932_35594)">
<path d="M7.99992 14.6667C8.87556 14.6677 9.74278 14.4958 10.5518 14.1607C11.3607 13.8256 12.0955 13.3339 12.7139 12.714C13.3339 12.0956 13.8255 11.3608 14.1606 10.5518C14.4957 9.74284 14.6677 8.87562 14.6666 7.99998C14.6677 7.12435 14.4957 6.25713 14.1606 5.44815C13.8255 4.63917 13.3339 3.90438 12.7139 3.28598C12.0955 2.66604 11.3607 2.17439 10.5518 1.83929C9.74278 1.50419 8.87556 1.33224 7.99992 1.33332C7.12429 1.33224 6.25707 1.50419 5.44809 1.83929C4.63911 2.17439 3.90431 2.66604 3.28592 3.28598C2.66598 3.90438 2.17433 4.63917 1.83923 5.44815C1.50413 6.25713 1.33218 7.12435 1.33326 7.99998C1.33218 8.87562 1.50413 9.74284 1.83923 10.5518C2.17433 11.3608 2.66598 12.0956 3.28592 12.714C3.90431 13.3339 4.63911 13.8256 5.44809 14.1607C6.25707 14.4958 7.12429 14.6677 7.99992 14.6667Z" stroke="#2F2E2C" stroke-width="1.33333" stroke-linejoin="round"/>
<path d="M5.33325 8L7.33325 10L11.3333 6" stroke="#2F2E2C" stroke-width="1.33333" stroke-linecap="round" stroke-linejoin="round"/>
</g>
<defs>
<clipPath id="clip0_3932_35594">
<rect width="16" height="16" fill="white"/>
</clipPath>
</defs>
</svg>
