<svg width="16" height="16" viewBox="0 0 16 16" fill="none" xmlns="http://www.w3.org/2000/svg">
<path d="M11.4999 2.33331L9.83325 4.83331C9.49992 4.65598 8.83325 4.33331 7.99992 4.33331C5.99992 4.33331 4.33325 5.99998 4.33325 7.83331C4.33325 9.66665 5.66659 11.6666 7.99992 11.6666C9.86659 11.6666 11.1666 10.3333 11.1666 9.33331H7.99992V6.99998H14.6666C14.8333 9.49998 14.0966 10.9666 13.1666 12.1666C11.7746 13.9626 9.72359 14.6666 7.99992 14.6666C4.66659 14.6666 1.33325 12 1.33325 7.83331C1.33325 3.83331 4.90792 1.33331 7.66659 1.33331C10.4253 1.33331 11.4999 2.33331 11.4999 2.33331Z" fill="#2F2E2C"/>
</svg>
